<svg width="150" height="150" viewBox="0 0 100 100" fill="none" xmlns="http://www.w3.org/2000/svg">
<rect width="100" height="100" rx="50" fill="#EBF5FF"/>
<path fill-rule="evenodd" clip-rule="evenodd" d="M49.9994 29.9996C55.5214 29.9996 59.9994 34.4756 59.9994 39.9996C59.9994 45.5236 55.5214 49.9996 49.9994 49.9996C44.4774 49.9996 39.9994 45.5236 39.9994 39.9996C39.9994 34.4756 44.4774 29.9996 49.9994 29.9996ZM59.228 69.3396C53.086 70.2196 46.914 70.2196 40.77 69.3396C37.15 68.8196 34.288 65.8176 34.04 62.1676C33.986 61.3876 33.986 60.6116 34.04 59.8316C34.288 56.1816 37.15 53.1796 40.77 52.6596C46.914 51.7796 53.086 51.7796 59.228 52.6596C62.85 53.1796 65.712 56.1816 65.96 59.8316C66.014 60.6116 66.014 61.3876 65.96 62.1676C65.712 65.8176 62.85 68.8196 59.228 69.3396Z" fill="#0049CC"/>
</svg>
